<svg width="24" height="24" xmlns="http://www.w3.org/2000/svg" fill-rule="evenodd" clip-rule="evenodd"><path d="M18 24h-12c-1.104 0-2-.896-2-2v-20c0-1.104.896-2 2-2h12c1.104 0 2 .896 2 2v20c0 1.104-.896 2-2 2zm0-5h-12v2.5c0 .276.224.5.5.5h11c.276 0 .5-.224.5-.5v-2.5zm-6 2.457c-.504 0-.911-.408-.911-.911 0-.503.407-.911.911-.911.503 0 .91.408.91.911 0 .503-.407.911-.91.911zm6-15.457h-12v12h12v-12zm-5.85 2.354c-.078-.237.099-.479.344-.479.152 0 .294.096.345.249l2.134 5.357c.063.191-.04.397-.23.46s-.396-.04-.459-.23c0 0-1.348-.451-2.945.079l1.05 1.633c.109.16.033.379-.149.439l-.714.238-.15.025c-.134 0-.264-.057-.357-.161l-1.443-1.593c-.786.248-1.676-.038-1.973-.778-.068-.17-.103-.351-.103-.533 0-.527.295-1.066.935-1.38 3.202-1.573 3.715-3.326 3.715-3.326zm2.275.342c.569.24 1.046.699 1.297 1.318.251.62.227 1.283-.013 1.853l.553.235c.156-.37.238-.77.238-1.178 0-1.188-.702-2.3-1.842-2.782l-.233.554zm-.399.946c.328.138.603.402.747.759.145.357.131.738-.007 1.066l.539.229c.196-.467.216-1.009.01-1.516-.205-.507-.595-.882-1.061-1.079l-.228.541zm3.974-4.642v-2.524c0-.276-.224-.5-.5-.5h-11c-.276 0-.5.224-.5.5v2.524h12zm-4.5-1h-3c-.276 0-.5-.224-.5-.5s.224-.5.5-.5h3c.276 0 .5.224.5.5s-.224.5-.5.5z"/></svg>